
      <svg data-logo="logo" xmlns="http://www.w3.org/2000/svg" viewBox="0 0 221 42">
        <g id="logogram" transform="translate(0, 1) rotate(0) "><path fill-rule="evenodd" clip-rule="evenodd" d="M23.3333 0C23.7194 0 24.1033 0.00932962 24.4847 0.0280265C24.4924 0.0284028 24.4989 0.0222809 24.4989 0.0145938V0.0145938C24.4989 0.00716838 24.5049 0.0011489 24.5123 0.0011489H45.8418C46.2974 0.00137965 46.6667 0.373466 46.6667 0.83295C46.6666 1.05356 46.5798 1.26515 46.4251 1.42119L40.8322 7.05882H52.7444C53.5415 7.05882 54.27 7.52957 54.5456 8.27757C55.4857 10.829 56 13.5892 56 16.4706C56 29.4655 45.5533 40 32.6667 40C32.2808 40 31.8971 39.9896 31.5158 39.9709C31.5078 39.9705 31.5011 39.9768 31.5011 39.9848V39.9848C31.5011 39.9926 31.4949 39.9989 31.4871 39.9989H10.1582C9.7026 39.9986 9.33333 39.6265 9.33333 39.1671C9.33336 38.9464 9.42022 38.7348 9.57487 38.5788L15.1655 32.9412H3.25562C2.45846 32.9412 1.73002 32.4704 1.4544 31.7224C0.514256 29.171 0 26.4109 0 23.5294C0 10.5345 10.4467 0 23.3333 0ZM31.3177 16.6556C29.3919 14.383 26.5301 12.9412 23.3333 12.9412C17.5343 12.9412 12.8333 17.6817 12.8333 23.5294C12.8333 24.7672 13.0456 25.9547 13.4326 27.0588H20.9989L24.6823 23.3444C26.6081 25.617 29.4699 27.0588 32.6667 27.0588C38.4657 27.0588 43.1667 22.3183 43.1667 16.4706C43.1667 15.2328 42.9544 14.0453 42.5674 12.9412H35.0011L31.3177 16.6556Z" fill="#3754FA"/></g>
        <g id="logotype" transform="translate(62, 8.5)"><path fill="#111111" d="M6.42 25L10.41 0.50L15.63 0.50L19.62 25L15.77 25L15.07 20.13L15.07 20.20L10.69 20.20L9.99 25L6.42 25ZM11.14 16.88L14.61 16.88L12.89 4.77L12.83 4.77L11.14 16.88ZM21.47 25L21.47 0.50L27.18 0.50Q30.15 0.50 31.52 1.88Q32.88 3.26 32.88 6.13L32.88 6.13L32.88 7.64Q32.88 11.45 30.36 12.47L30.36 12.47L30.36 12.54Q31.76 12.96 32.34 14.25Q32.92 15.55 32.92 17.72L32.92 17.72L32.92 22.02Q32.92 23.07 32.99 23.72Q33.06 24.37 33.34 25L33.34 25L29.42 25Q29.21 24.41 29.14 23.88Q29.07 23.36 29.07 21.99L29.07 21.99L29.07 17.51Q29.07 15.83 28.52 15.16Q27.98 14.50 26.65 14.50L26.65 14.50L25.32 14.50L25.32 25L21.47 25ZM25.32 11.00L26.72 11.00Q27.88 11.00 28.45 10.40Q29.03 9.81 29.03 8.41L29.03 8.41L29.03 6.52Q29.03 5.19 28.56 4.59Q28.09 4.00 27.07 4.00L27.07 4.00L25.32 4.00L25.32 11.00ZM41.18 25L41.18 0.50L47.06 0.50Q49.93 0.50 51.36 2.04Q52.80 3.58 52.80 6.55L52.80 6.55L52.80 18.95Q52.80 21.92 51.36 23.46Q49.93 25 47.06 25L47.06 25L41.18 25ZM45.03 21.50L46.99 21.50Q47.93 21.50 48.44 20.94Q48.95 20.38 48.95 19.12L48.95 19.12L48.95 6.38Q48.95 5.12 48.44 4.56Q47.93 4.00 46.99 4.00L46.99 4.00L45.03 4.00L45.03 21.50ZM55.39 25L55.39 0.50L65.89 0.50L65.89 4.00L59.24 4.00L59.24 10.47L64.52 10.47L64.52 13.97L59.24 13.97L59.24 21.50L65.89 21.50L65.89 25L55.39 25ZM70.79 25L67.08 0.50L70.96 0.50L73.48 19.50L73.55 19.50L76.07 0.50L79.61 0.50L75.90 25L70.79 25ZM81.46 25L81.46 0.50L91.96 0.50L91.96 4.00L85.31 4.00L85.31 10.47L90.60 10.47L90.60 13.97L85.31 13.97L85.31 21.50L91.96 21.50L91.96 25L81.46 25ZM94.17 25L94.17 0.50L98.02 0.50L98.02 21.50L104.35 21.50L104.35 25L94.17 25ZM111.63 25.35Q108.80 25.35 107.29 23.74Q105.79 22.13 105.79 19.19L105.79 19.19L105.79 6.31Q105.79 3.37 107.29 1.76Q108.80 0.15 111.63 0.15L111.63 0.15Q114.47 0.15 115.97 1.76Q117.48 3.37 117.48 6.31L117.48 6.31L117.48 19.19Q117.48 22.13 115.97 23.74Q114.47 25.35 111.63 25.35L111.63 25.35ZM111.63 21.85Q113.63 21.85 113.63 19.43L113.63 19.43L113.63 6.06Q113.63 3.65 111.63 3.65L111.63 3.65Q109.64 3.65 109.64 6.06L109.64 6.06L109.64 19.43Q109.64 21.85 111.63 21.85L111.63 21.85ZM120.07 25L120.07 0.50L125.74 0.50Q128.61 0.50 130.04 2.04Q131.48 3.58 131.48 6.55L131.48 6.55L131.48 8.97Q131.48 11.94 130.04 13.48Q128.61 15.02 125.74 15.02L125.74 15.02L123.92 15.02L123.92 25L120.07 25ZM123.92 11.52L125.74 11.52Q126.68 11.52 127.15 11.00Q127.63 10.47 127.63 9.21L127.63 9.21L127.63 6.31Q127.63 5.05 127.15 4.52Q126.68 4.00 125.74 4.00L125.74 4.00L123.92 4.00L123.92 11.52ZM133.58 25L133.58 0.50L144.08 0.50L144.08 4.00L137.43 4.00L137.43 10.47L142.71 10.47L142.71 13.97L137.43 13.97L137.43 21.50L144.08 21.50L144.08 25L133.58 25ZM146.28 25L146.28 0.50L151.99 0.50Q154.96 0.50 156.33 1.88Q157.69 3.26 157.69 6.13L157.69 6.13L157.69 7.64Q157.69 11.45 155.17 12.47L155.17 12.47L155.17 12.54Q156.57 12.96 157.15 14.25Q157.73 15.55 157.73 17.72L157.73 17.72L157.73 22.02Q157.73 23.07 157.80 23.72Q157.87 24.37 158.15 25L158.15 25L154.23 25Q154.02 24.41 153.95 23.88Q153.88 23.36 153.88 21.99L153.88 21.99L153.88 17.51Q153.88 15.83 153.33 15.16Q152.79 14.50 151.46 14.50L151.46 14.50L150.13 14.50L150.13 25L146.28 25ZM150.13 11.00L151.53 11.00Q152.69 11.00 153.26 10.40Q153.84 9.81 153.84 8.41L153.84 8.41L153.84 6.52Q153.84 5.19 153.37 4.59Q152.90 4.00 151.88 4.00L151.88 4.00L150.13 4.00L150.13 11.00Z"/></g>
        
      </svg>
    